<svg width="61" height="61" viewBox="0 0 61 61" fill="none" xmlns="http://www.w3.org/2000/svg">
<rect x="1" y="1" width="59" height="59" fill="#004F44" stroke="#004F44"/>
<g clip-path="url(#clip0_114_96)">
<path d="M29.7011 20.9278C31.3858 20.9263 33.0332 21.4245 34.4348 22.3594C35.8364 23.2942 36.9292 24.6238 37.575 26.1799C38.2208 27.736 38.3906 29.4486 38.0628 31.1012C37.7351 32.7538 36.9246 34.2721 35.7338 35.4639C34.543 36.6558 33.0255 37.4677 31.3732 37.7969C29.721 38.1262 28.0081 37.958 26.4515 37.3136C24.8948 36.6692 23.5642 35.5776 22.6281 34.1769C21.6919 32.7762 21.1922 31.1293 21.1922 29.4445C21.2024 27.1902 22.1019 25.0311 23.6952 23.4363C25.2885 21.8416 27.4468 20.9401 29.7011 20.9278ZM29.7011 19.3334C27.7013 19.3334 25.7464 19.9264 24.0836 21.0374C22.4209 22.1484 21.1249 23.7276 20.3596 25.5751C19.5943 27.4227 19.3941 29.4557 19.7843 31.4171C20.1744 33.3784 21.1374 35.1801 22.5514 36.5941C23.9655 38.0082 25.7671 38.9712 27.7285 39.3613C29.6899 39.7515 31.7229 39.5512 33.5704 38.7859C35.418 38.0206 36.9971 36.7247 38.1082 35.0619C39.2192 33.3992 39.8122 31.4443 39.8122 29.4445C39.8122 26.7629 38.7469 24.1911 36.8507 22.2949C34.9545 20.3986 32.3827 19.3334 29.7011 19.3334Z" fill="white"/>
<path d="M44.2222 42.8922L38.49 37.1211L37.3856 38.2178L43.1178 43.9889C43.1898 44.0614 43.2754 44.119 43.3697 44.1585C43.4639 44.1979 43.5651 44.2184 43.6673 44.2187C43.7695 44.2191 43.8707 44.1993 43.9653 44.1606C44.0598 44.1218 44.1458 44.0648 44.2183 43.9928C44.2909 43.9208 44.3485 43.8352 44.3879 43.7409C44.4274 43.6466 44.4479 43.5455 44.4482 43.4433C44.4486 43.3411 44.4288 43.2398 44.39 43.1453C44.3513 43.0507 44.2942 42.9647 44.2222 42.8922Z" fill="white"/>
</g>
<defs>
<clipPath id="clip0_114_96">
<rect width="28" height="28" fill="white" transform="translate(17 17)"/>
</clipPath>
</defs>
</svg>
